HIERARCHY
ROOT Hips
{
 OFFSET 0.000000 0.000000 0.000000
 CHANNELS 6 Xposition Yposition Zposition Yrotation Xrotation Zrotation
 JOINT Chest
 {
  OFFSET 0.000000 9.581000 -0.001100
  CHANNELS 3 Yrotation Xrotation Zrotation
  JOINT Chest2
  {
   OFFSET 0.000000 9.561100 0.002200
   CHANNELS 3 Yrotation Xrotation Zrotation
   JOINT Chest3
   {
    OFFSET 0.000000 9.521100 0.000000
    CHANNELS 3 Yrotation Xrotation Zrotation
    JOINT Chest4
    {
     OFFSET 0.000000 9.511400 0.000000
     CHANNELS 3 Yrotation Xrotation Zrotation
     JOINT Neck
     {
      OFFSET 0.000000 14.375100 0.000000
      CHANNELS 3 Yrotation Xrotation Zrotation
      JOINT Head
      {
       OFFSET 0.000000 8.901200 0.004600
       CHANNELS 3 Yrotation Xrotation Zrotation
       End Site
       {
        OFFSET 0.000000 16.962200 0.002400
       }
      }
     }
     JOINT RightCollar
     {
      OFFSET -2.920100 9.518800 0.000000
      CHANNELS 3 Yrotation Xrotation Zrotation
      JOINT RightShoulder
      {
       OFFSET -13.664500 0.000000 0.000000
       CHANNELS 3 Yrotation Xrotation Zrotation
       JOINT RightElbow
       {
        OFFSET 0.000000 -29.999200 0.000000
        CHANNELS 3 Yrotation Xrotation Zrotation
        JOINT RightWrist
        {
         OFFSET 0.000000 -24.253600 0.000000
         CHANNELS 3 Yrotation Xrotation Zrotation
         End Site
         {
          OFFSET 0.000000 -17.918900 0.000000
         }
        }
       }
      }
     }
     JOINT LeftCollar
     {
      OFFSET 2.920100 9.518800 0.000000
      CHANNELS 3 Yrotation Xrotation Zrotation
      JOINT LeftShoulder
      {
       OFFSET 13.664500 0.000000 0.000000
       CHANNELS 3 Yrotation Xrotation Zrotation
       JOINT LeftElbow
       {
        OFFSET 0.000000 -29.999200 0.000000
        CHANNELS 3 Yrotation Xrotation Zrotation
        JOINT LeftWrist
        {
         OFFSET 0.000000 -24.253600 0.000000
         CHANNELS 3 Yrotation Xrotation Zrotation
         End Site
         {
          OFFSET 0.000000 -17.918900 0.000000
         }
        }
       }
      }
     }
    }
   }
  }
 }
 JOINT RightHip
 {
  OFFSET -7.797300 0.005300 0.000500
  CHANNELS 3 Yrotation Xrotation Zrotation
  JOINT RightKnee
  {
   OFFSET 0.000000 -40.663400 -0.000500
   CHANNELS 3 Yrotation Xrotation Zrotation
   JOINT RightAnkle
   {
    OFFSET 0.000000 -39.523700 -0.000900
    CHANNELS 3 Yrotation Xrotation Zrotation
    JOINT RightToe
    {
     OFFSET 0.000000 -6.418000 14.485300
     CHANNELS 3 Yrotation Xrotation Zrotation
     End Site
     {
      OFFSET 0.000000 -1.465200 6.326400
     }
    }
   }
  }
 }
 JOINT LeftHip
 {
  OFFSET 7.797300 0.005300 0.000500
  CHANNELS 3 Yrotation Xrotation Zrotation
  JOINT LeftKnee
  {
   OFFSET 0.000000 -40.663400 -0.000500
   CHANNELS 3 Yrotation Xrotation Zrotation
   JOINT LeftAnkle
   {
    OFFSET 0.000000 -39.523700 -0.000900
    CHANNELS 3 Yrotation Xrotation Zrotation
    JOINT LeftToe
    {
     OFFSET 0.000000 -6.418000 14.485300
     CHANNELS 3 Yrotation Xrotation Zrotation
     End Site
     {
      OFFSET 0.000000 -1.465200 6.326400
     }
    }
   }
  }
 }
}
MOTION
Frames: 15
Frame Time: 0.008333
-15.077300 126.902102 11.825561 -174.144256 -47.457861 -4.151267 1.355466 27.304189 2.620109 0.113458 4.805111 0.403976 0.231221 7.563685 0.638812 1.008694 22.200281 2.040302 -2.179689 11.738268 -1.086707 -2.039644 -13.326439 -0.643914 2.523087 2.013017 1.305977 -11.160902 -12.845744 -8.048114 -88.253854 -35.649601 144.943464 -8.041127 12.683381 30.911708 -10.287656 -1.622470 -0.673766 8.036949 -17.496556 8.708144 71.601940 -31.924182 -133.596133 5.881100 -1.358419 -39.535649 -0.612191 -25.553944 -0.777946 -10.543420 74.047224 -14.076538 10.129332 -7.596681 9.365774 -0.012525 -0.002566 -0.005549 5.198068 -5.334460 4.137582 143.823380 69.698503 160.947216 -2.844216 -14.803658 -12.367107 0.001955 0.000074 0.000866
-15.076381 126.902734 11.825348 -174.137962 -47.462147 -4.162182 1.377110 27.286975 2.633343 0.119646 4.798619 0.404066 0.236815 7.554421 0.639656 1.002666 22.212630 2.048921 -2.319626 11.859366 -1.150766 -2.191714 -13.178990 -0.666086 2.484260 2.097786 1.275062 -11.609819 -12.979319 -7.976755 -88.398535 -35.092981 145.295583 -9.349260 11.720714 30.138290 -10.213119 -1.558254 -0.645620 8.458579 -17.651992 8.513115 71.554003 -31.493459 -133.820940 6.789722 -2.140007 -39.318953 -0.620775 -25.548726 -0.783400 -10.498588 74.045223 -14.038940 10.209288 -7.607046 9.373160 0.001461 -0.002473 0.000647 5.201650 -5.333201 4.144662 143.823685 69.697501 160.950638 -2.841570 -14.802236 -12.361882 0.000224 -0.000569 0.000099
-15.076801 126.903271 11.825211 -174.132234 -47.466655 -4.165315 1.392445 27.270989 2.636959 0.126181 4.791472 0.405280 0.264073 7.511358 0.633830 0.978890 22.258590 2.066581 -2.467097 11.996567 -1.216484 -2.346966 -13.015292 -0.690763 2.440716 2.169294 1.241703 -12.060255 -13.093961 -7.909242 -88.617771 -34.578586 145.686775 -10.585371 10.697266 29.373340 -10.185487 -1.515352 -0.627672 8.904038 -17.781438 8.347639 71.544330 -31.109590 -134.031423 7.640684 -2.887581 -39.078875 -0.624861 -25.543282 -0.787296 -10.501679 74.043973 -14.038190 10.190503 -7.610455 9.379259 0.001887 -0.002803 0.000836 5.205161 -5.329771 4.143991 143.821305 69.696374 160.949030 -2.840014 -14.802584 -12.357386 -0.000465 -0.000150 -0.000206
-15.076943 126.903998 11.824856 -174.121845 -47.472534 -4.174313 1.404450 27.257374 2.642264 0.128811 4.785127 0.404018 0.266563 7.502870 0.634834 0.997136 22.247093 2.071005 -2.639258 12.169652 -1.277666 -2.506839 -12.837300 -0.718962 2.377534 2.248170 1.213482 -12.521083 -13.190591 -7.837767 -88.884758 -34.112605 146.095177 -11.730338 9.639750 28.641357 -10.119840 -1.427233 -0.578087 9.277757 -17.913226 8.165362 71.568535 -30.778957 -134.230084 8.427926 -3.592631 -38.818169 -0.631023 -25.537413 -0.794438 -10.496662 74.043792 -14.028365 10.200465 -7.610039 9.378192 0.003131 -0.003671 0.001387 5.204008 -5.324448 4.145816 143.817266 69.695740 160.945239 -2.839446 -14.802662 -12.356307 -0.000787 0.000056 -0.000349
-15.076763 126.904243 11.824860 -174.113616 -47.474514 -4.183921 1.416034 27.241529 2.646071 0.134625 4.777210 0.409451 0.256923 7.511337 0.634514 1.029093 22.187682 2.058605 -2.826970 12.384538 -1.334101 -2.672754 -12.649578 -0.751510 2.304552 2.347497 1.194831 -12.990902 -13.273814 -7.756844 -89.171832 -33.690083 146.502509 -12.763913 8.596233 27.918476 -10.073405 -1.310302 -0.520544 9.625655 -18.021061 7.999059 71.627940 -30.510742 -134.419170 9.143900 -4.246368 -38.528927 -0.625052 -25.533320 -0.805587 -10.458942 74.043219 -13.983842 10.237168 -7.614459 9.381938 0.007934 -0.003191 0.003515 5.205165 -5.322718 4.149078 143.810236 69.695536 160.942333 -2.840959 -14.803323 -12.357935 0.000225 0.000452 0.000100
-15.077318 126.903854 11.825372 -174.104183 -47.471313 -4.190068 1.421958 27.224326 2.642116 0.147327 4.753188 0.401522 0.243458 7.532514 0.647890 1.043537 22.155305 2.046466 -3.008476 12.579136 -1.402794 -2.844841 -12.459182 -0.789533 2.245960 2.412956 1.166802 -13.465698 -13.343008 -7.664773 -89.482196 -33.314820 146.914870 -13.695663 7.578491 27.169225 -10.064890 -1.244681 -0.487197 9.972406 -18.089794 7.879959 71.732250 -30.313237 -134.595031 9.777603 -4.844103 -38.206171 -0.627703 -25.536297 -0.800345 -10.479456 74.045855 -13.996203 10.154112 -7.606089 9.379036 -0.002264 -0.002561 -0.001003 5.203436 -5.330460 4.148657 143.815672 69.692392 160.950149 -2.844830 -14.801735 -12.356247 0.003011 -0.001515 0.001334
-15.078662 126.903927 11.825413 -174.099007 -47.471975 -4.188802 1.425989 27.216588 2.634456 0.154054 4.742123 0.396958 0.241945 7.522797 0.648397 1.048746 22.154981 2.047264 -3.192141 12.757501 -1.482883 -3.022679 -12.273376 -0.832797 2.193275 2.451238 1.132251 -13.941335 -13.397831 -7.563023 -89.847937 -33.010333 147.343520 -14.561848 6.579998 26.379359 -10.053555 -1.201340 -0.460187 10.267273 -18.137663 7.786481 71.895810 -30.190292 -134.756251 10.322575 -5.386599 -37.854059 -0.625176 -25.535299 -0.804434 -10.493863 74.050226 -14.017382 10.150963 -7.611232 9.387517 -0.003413 -0.001883 -0.001512 5.213977 -5.331817 4.152666 143.818505 69.691442 160.942315 -2.847438 -14.805381 -12.337042 -0.002793 0.001008 -0.001237
-15.079353 126.903978 11.825449 -174.091111 -47.471771 -4.193431 1.423682 27.214153 2.632608 0.162362 4.735332 0.392355 0.244557 7.510768 0.644577 1.046879 22.164004 2.055778 -3.377661 12.919465 -1.572547 -3.205571 -12.095932 -0.879506 2.146612 2.468233 1.090188 -14.412717 -13.445748 -7.452925 -90.299070 -32.803226 147.782380 -15.395068 5.600581 25.571746 -10.028039 -1.171334 -0.440893 10.495517 -18.167890 7.718870 72.128100 -30.142466 -134.905937 10.783490 -5.871319 -37.490540 -0.617999 -25.533676 -0.807502 -10.520254 74.051771 -14.038822 10.150045 -7.614036 9.392445 -0.003378 -0.001022 -0.001497 5.213015 -5.332266 4.154660 143.821336 69.691929 160.939120 -2.847692 -14.804727 -12.332996 -0.004191 0.002102 -0.001857
-15.080020 126.904044 11.825501 -174.076703 -47.471150 -4.202955 1.426986 27.207918 2.631303 0.157439 4.736485 0.394603 0.250637 7.502294 0.641886 1.044230 22.167764 2.061321 -3.569589 13.077340 -1.660624 -3.391276 -11.925597 -0.927316 2.098812 2.480692 1.048165 -14.876726 -13.493510 -7.338080 -90.826809 -32.690284 148.218305 -16.191163 4.637624 24.786821 -10.000146 -1.125757 -0.423641 10.662315 -18.194335 7.674399 72.421726 -30.167011 -135.041981 11.167521 -6.296650 -37.136562 -0.616718 -25.532979 -0.813234 -10.522268 74.055701 -14.034719 10.147944 -7.611838 9.394383 -0.005571 -0.000079 -0.002468 5.208011 -5.333502 4.156377 143.822235 69.693447 160.938171 -2.848863 -14.799323 -12.340881 -0.005196 0.003553 -0.002303
-15.080005 126.903365 11.826316 -174.049365 -47.463520 -4.225656 1.424697 27.196198 2.634861 0.145882 4.740000 0.399591 0.256130 7.495674 0.637394 1.045025 22.164275 2.061184 -3.765149 13.234874 -1.740718 -3.576834 -11.760598 -0.974655 2.072353 2.492704 1.034003 -15.345183 -13.548597 -7.243218 -91.394680 -32.644108 148.644445 -16.896859 3.694125 24.033724 -9.996233 -1.093529 -0.412077 10.798624 -18.188595 7.668823 72.752148 -30.249390 -135.163324 11.471972 -6.662469 -36.798020 -0.625115 -25.539065 -0.818966 -10.496560 74.058931 -14.005449 10.184225 -7.613991 9.396742 -0.001966 -0.001783 -0.000871 5.206015 -5.347830 4.169293 143.841399 69.695427 160.972386 -2.856522 -14.796332 -12.344696 0.001051 0.002593 0.000466
-15.080163 126.903260 11.826701 -174.041203 -47.461998 -4.233579 1.421513 27.194090 2.634497 0.151342 4.736497 0.401794 0.254543 7.492757 0.636441 1.040193 22.161024 2.058641 -3.958276 13.386071 -1.819163 -3.757530 -11.604106 -1.020945 2.050206 2.503204 1.015551 -15.789252 -13.605743 -7.148751 -91.970574 -32.635980 149.057323 -17.459398 2.785445 23.290768 -9.991914 -1.072312 -0.406762 10.906124 -18.158571 7.695587 73.094060 -30.371160 -135.279014 11.690435 -6.965401 -36.469620 -0.610594 -25.538574 -0.825352 -10.502253 74.057738 -13.998254 10.215668 -7.615101 9.395771 0.002606 -0.001102 0.001154 5.209461 -5.352720 4.179020 143.848332 69.700909 160.982281 -2.860281 -14.789298 -12.344110 0.002159 0.001469 0.000957
-15.080179 126.903039 11.827309 -174.032361 -47.460088 -4.242898 1.414115 27.192245 2.633503 0.154065 4.735461 0.400574 0.252413 7.490699 0.636690 1.033998 22.158852 2.058630 -4.142743 13.519596 -1.898475 -3.929389 -11.462786 -1.064616 1.967295 2.530286 0.927967 -16.153089 -13.668660 -6.996242 -92.537957 -32.650005 149.453510 -17.879568 1.934733 22.552107 -9.980267 -1.056605 -0.404628 10.991052 -18.115251 7.742737 73.431962 -30.528175 -135.393144 11.831949 -7.207716 -36.156618 -0.608679 -25.538606 -0.823979 -10.502489 74.057301 -13.992707 10.220408 -7.613830 9.392061 0.002807 0.000039 0.001244 5.211329 -5.357368 4.189230 143.855908 69.702324 160.992330 -2.863700 -14.788049 -12.342112 0.002760 0.001088 0.001223
-15.080868 126.902799 11.828064 -174.020843 -47.458904 -4.250178 1.404036 27.191559 2.630496 0.147465 4.734161 0.396981 0.249020 7.489776 0.635294 1.023082 22.158142 2.053218 -4.306773 13.631041 -1.974311 -4.092216 -11.342973 -1.104939 1.938901 2.555667 0.883336 -16.527171 -13.749005 -6.895372 -93.101728 -32.690992 149.830588 -18.200965 1.153656 21.840709 -9.959222 -1.029246 -0.397931 11.057519 -18.074484 7.798861 73.755124 -30.715779 -135.500491 11.917461 -7.395576 -35.871070 -0.606181 -25.538575 -0.826689 -10.480251 74.061016 -13.967696 10.214338 -7.616549 9.393609 0.002891 0.000413 0.001281 5.211390 -5.361095 4.195408 143.838904 69.699232 160.975771 -2.876886 -14.788937 -12.332534 0.001768 0.001278 0.000783
-15.080654 126.902791 11.828698 -174.005468 -47.460038 -4.265580 1.393521 27.190394 2.627280 0.145345 4.734114 0.396270 0.245993 7.489647 0.633970 1.012908 22.158513 2.047793 -4.462196 13.718667 -2.042212 -4.243999 -11.248152 -1.143675 1.900091 2.589481 0.843040 -16.868746 -13.839706 -6.806199 -93.675962 -32.763905 150.195662 -18.452277 0.437702 21.166122 -9.935991 -0.969033 -0.390489 11.094663 -18.060403 7.868278 74.051897 -30.917128 -135.597033 11.959640 -7.529744 -35.619474 -0.607663 -25.536120 -0.826035 -10.460442 74.059017 -13.947491 10.238879 -7.616879 9.398171 0.006003 -0.001030 0.002660 5.208103 -5.361966 4.205186 143.844334 69.700719 160.986953 -2.878690 -14.787633 -12.336758 0.003426 0.000873 0.001518
-15.080780 126.902777 11.829409 -173.994663 -47.462433 -4.275026 1.374035 27.189700 2.608499 0.150780 4.735575 0.402411 0.231353 7.487622 0.621395 1.020577 22.161243 2.054577 -4.605180 13.782258 -2.109413 -4.383596 -11.177789 -1.179602 1.859361 2.631311 0.802585 -17.173500 -13.931223 -6.731536 -94.263354 -32.862176 150.557682 -18.648660 -0.210903 20.532931 -9.909334 -0.922893 -0.391381 11.093966 -18.030706 7.963980 74.312797 -31.118589 -135.680765 11.966653 -7.609857 -35.409266 -0.604702 -25.533925 -0.821544 -10.466839 74.061933 -13.949256 10.208353 -7.615771 9.396798 0.002278 -0.001517 0.001009 5.207375 -5.360528 4.212965 143.846612 69.700862 160.989766 -2.881662 -14.790272 -12.338720 0.002045 0.001343 0.000906
